<svg width="58" height="58" viewBox="0 0 58 58" fill="none" xmlns="http://www.w3.org/2000/svg">
<path d="M29 1C13.5323 1 1 13.5323 1 29C1 44.4677 13.5323 57 29 57C44.4677 57 57 44.4677 57 29C57 13.5323 44.4677 1 29 1ZM27.1935 38.0323C27.1935 39.0258 26.3806 39.8387 25.3871 39.8387H19.9677C18.9742 39.8387 18.1613 39.0258 18.1613 38.0323V19.9677C18.1613 18.9742 18.9742 18.1613 19.9677 18.1613H25.3871C26.3806 18.1613 27.1935 18.9742 27.1935 19.9677V38.0323ZM39.8387 38.0323C39.8387 39.0258 39.0258 39.8387 38.0323 39.8387H32.6129C31.6194 39.8387 30.8064 39.0258 30.8064 38.0323V19.9677C30.8064 18.9742 31.6194 18.1613 32.6129 18.1613H38.0323C39.0258 18.1613 39.8387 18.9742 39.8387 19.9677V38.0323Z" stroke="white" stroke-opacity="0.79" stroke-width="2"/>
</svg>
